<svg id="cart_3_1" data-name="cart (3) 1" xmlns="http://www.w3.org/2000/svg" width="20" height="20" viewBox="0 0 20 20">
  <rect id="cart_3_1-2" data-name="cart (3) 1" width="20" height="20" fill="none"/>
  <path id="Vector" d="M0,.625A.625.625,0,0,1,.625,0H1.09A1.752,1.752,0,0,1,2.628,1.028a5.47,5.47,0,0,1,.414,1.059q.042,0,.083,0H13.54a1.042,1.042,0,0,1,1,1.328L13.018,8.752a2.292,2.292,0,0,1-2.2,1.663H5.858A2.292,2.292,0,0,1,3.648,8.73L3.015,6.42,1.965,2.88V2.873a6.048,6.048,0,0,0-.433-1.245c-.174-.321-.314-.378-.44-.378H.625A.625.625,0,0,1,0,.625ZM4.227,6.117,4.853,8.4a1.044,1.044,0,0,0,1.005.766h4.957a1.042,1.042,0,0,0,1-.756l1.448-5.076H3.4l.812,2.739Zm2.856,6.8A1.667,1.667,0,1,1,6.6,11.738,1.667,1.667,0,0,1,7.083,12.917Zm-1.25,0a.417.417,0,1,0-.122.295A.417.417,0,0,0,5.833,12.917Zm7.083,0a1.667,1.667,0,1,1-.488-1.179A1.667,1.667,0,0,1,12.917,12.917Zm-1.25,0a.417.417,0,1,0-.122.295A.417.417,0,0,0,11.667,12.917Z" transform="translate(2.083 2.917)" fill="#aaa"/>
</svg>
