<svg id="location_7_1" data-name="location (7) 1" xmlns="http://www.w3.org/2000/svg" width="20" height="20" viewBox="0 0 20 20">
  <rect id="location_7_1-2" data-name="location (7) 1" width="20" height="20" fill="none"/>
  <path id="Vector" d="M2.125,2.125A7.256,7.256,0,1,1,12.387,12.387l-.989.978Q10.3,14.438,8.56,16.125a1.875,1.875,0,0,1-2.607,0L3.044,13.3q-.549-.539-.918-.908a7.256,7.256,0,0,1,0-10.262Zm9.377.883A6.006,6.006,0,0,0,3.01,11.5l1.238,1.223q1.283,1.254,2.573,2.5a.625.625,0,0,0,.869,0l2.828-2.75q.588-.576.983-.973a6.006,6.006,0,0,0,0-8.493ZM7.256,4.984a2.5,2.5,0,1,1-1.739.749,2.5,2.5,0,0,1,1.739-.749Zm0,1.25a1.253,1.253,0,1,0,.885.367,1.252,1.252,0,0,0-.885-.367Z" transform="translate(2.744 1.681)" fill="#aaa"/>
</svg>
