<svg id="people_1_1" data-name="people (1) 1" xmlns="http://www.w3.org/2000/svg" width="20" height="20" viewBox="0 0 20 20">
  <rect id="people_1_1-2" data-name="people (1) 1" width="20" height="20" fill="none"/>
  <path id="Vector" d="M1.667,9.166h7.5a1.667,1.667,0,0,1,1.663,1.542l0,.125v1.25c0,2.917-3.1,3.75-5.417,3.75-2.268,0-5.279-.8-5.412-3.558l0-.192V10.832A1.668,1.668,0,0,1,1.542,9.17l.125,0Zm9.35,0H15a1.666,1.666,0,0,1,1.662,1.542l0,.125v.833C16.666,14.218,14.285,15,12.5,15a5.967,5.967,0,0,1-1.783-.268,3.745,3.745,0,0,0,.668-1.106,5.159,5.159,0,0,0,1.115.124l.222-.005c.821-.036,2.572-.3,2.688-1.908l.006-.171v-.833a.418.418,0,0,0-.342-.41L15,10.417H11.624a2.464,2.464,0,0,0-.5-1.117Zm-9.35,1.249-.083.008a.415.415,0,0,0-.325.324l-.008.084v1.251a1.979,1.979,0,0,0,1.181,1.868,6.362,6.362,0,0,0,2.722.627l.264,0,.264,0A6.365,6.365,0,0,0,8.4,13.952a1.978,1.978,0,0,0,1.177-1.714l0-.155V10.833a.418.418,0,0,0-.342-.41l-.075-.007ZM5.417,0A3.75,3.75,0,1,1,2.765,1.1,3.75,3.75,0,0,1,5.417,0Zm7.5,1.667a2.917,2.917,0,1,1-2.062.854,2.917,2.917,0,0,1,2.062-.854Zm-7.5-.417a2.5,2.5,0,1,0,2.5,2.5A2.5,2.5,0,0,0,5.417,1.25Zm7.5,1.667a1.667,1.667,0,1,0,1.667,1.667,1.668,1.668,0,0,0-1.667-1.667Z" transform="translate(1.667 2.5)" fill="#aaa"/>
</svg>
