<svg id="person_4_1" data-name="person (4) 1" xmlns="http://www.w3.org/2000/svg" width="20" height="20" viewBox="0 0 20 20">
  <rect id="person_4_1-2" data-name="person (4) 1" width="20" height="20" fill="none"/>
  <path id="Vector" d="M11.458,10a1.874,1.874,0,0,1,1.875,1.874v.479a3.121,3.121,0,0,1-.752,2.032c-1.308,1.528-3.3,2.282-5.918,2.282S2.053,15.91.748,14.381A3.125,3.125,0,0,1,0,12.352v-.481A1.874,1.874,0,0,1,1.874,10Zm0,1.25H1.874a.624.624,0,0,0-.625.624v.481a1.874,1.874,0,0,0,.45,1.217c1.044,1.223,2.682,1.845,4.964,1.845s3.922-.622,4.968-1.845a1.875,1.875,0,0,0,.451-1.219v-.479a.622.622,0,0,0-.624-.624ZM6.663,0A4.167,4.167,0,1,1,3.717,1.22,4.167,4.167,0,0,1,6.663,0Zm0,1.25A2.917,2.917,0,1,0,8.726,2.1,2.917,2.917,0,0,0,6.663,1.25Z" transform="translate(3.337 1.67)" fill="#aaa"/>
</svg>
