<svg id="settings_3_1" data-name="settings (3) 1" xmlns="http://www.w3.org/2000/svg" width="20" height="20" viewBox="0 0 20 20">
  <rect id="settings_3_1-2" data-name="settings (3) 1" width="20" height="20" fill="none"/>
  <path id="Vector" d="M7.81,0A8.788,8.788,0,0,1,9.629.211a.625.625,0,0,1,.485.541l.142,1.272a1.153,1.153,0,0,0,1.606.93l1.168-.513a.625.625,0,0,1,.708.145,8.16,8.16,0,0,1,1.837,3.16.625.625,0,0,1-.226.688L14.313,7.2a1.151,1.151,0,0,0,0,1.855l1.036.762a.625.625,0,0,1,.227.688,8.164,8.164,0,0,1-1.837,3.16.625.625,0,0,1-.707.146l-1.172-.514a1.15,1.15,0,0,0-1.6.928l-.141,1.272a.625.625,0,0,1-.477.539,7.932,7.932,0,0,1-3.672,0,.625.625,0,0,1-.477-.539l-.14-1.27A1.152,1.152,0,0,0,3.744,13.3l-1.172.513a.625.625,0,0,1-.707-.146A8.165,8.165,0,0,1,.028,10.5a.625.625,0,0,1,.227-.688L1.29,9.053a1.15,1.15,0,0,0,0-1.855L.255,6.436a.625.625,0,0,1-.226-.688,8.161,8.161,0,0,1,1.837-3.16.625.625,0,0,1,.708-.145l1.167.513a1.156,1.156,0,0,0,1.608-.932L5.49.752A.625.625,0,0,1,5.976.21,8.94,8.94,0,0,1,7.81,0Zm0,1.25a7.613,7.613,0,0,0-1.128.1l-.091.814A2.4,2.4,0,0,1,3.238,4.1L2.49,3.772A6.911,6.911,0,0,0,1.366,5.7l.665.489a2.4,2.4,0,0,1,0,3.869l-.666.49a6.921,6.921,0,0,0,1.123,1.935l.754-.331A2.4,2.4,0,0,1,6.59,14.087l.092.82a6.732,6.732,0,0,0,2.239,0l.092-.82a2.4,2.4,0,0,1,3.348-1.935l.754.33a6.913,6.913,0,0,0,1.122-1.932l-.665-.49a2.4,2.4,0,0,1,0-3.869l.663-.489a6.911,6.911,0,0,0-1.123-1.931l-.747.327A2.4,2.4,0,0,1,9.014,2.162l-.092-.813a7.489,7.489,0,0,0-1.111-.1ZM7.8,5a3.125,3.125,0,1,1-2.21.915A3.125,3.125,0,0,1,7.8,5Zm0,1.25A1.875,1.875,0,1,0,9.126,6.8,1.875,1.875,0,0,0,7.8,6.25Z" transform="translate(2.2 1.875)" fill="#aaa"/>
</svg>
