<svg id="sign-out_2_1" data-name="sign-out (2) 1" xmlns="http://www.w3.org/2000/svg" width="20" height="20" viewBox="0 0 20 20">
  <rect id="sign-out_2_1-2" data-name="sign-out (2) 1" width="20" height="20" fill="none"/>
  <path id="Vector" d="M.835,0a.835.835,0,1,1-.59.245A.835.835,0,0,1,.835,0Z" transform="translate(6.25 9.583)" fill="#aaa"/>
  <path id="Vector-2" data-name="Vector" d="M8.333.625V6.167h6.2L13.1,4.73a.625.625,0,0,1-.061-.813l.061-.07a.625.625,0,0,1,.813-.061l.07.061,2.5,2.5a.625.625,0,0,1,.061.813l-.061.07-2.5,2.5a.625.625,0,0,1-.945-.812l.06-.071,1.427-1.431H8.334v5.621a.625.625,0,0,1-.733.616L.517,12.4A.625.625,0,0,1,0,11.788v-10a.625.625,0,0,1,.523-.617L7.607.008a.625.625,0,0,1,.727.617Zm-1.25.736L1.25,2.319v8.944l5.833,1.03Z" transform="translate(1.667 3.003)" fill="#aaa"/>
  <path id="Vector-3" data-name="Vector" d="M0,7.083H1.257l.006,3.542a.625.625,0,0,1-.54.621l-.085.005H0ZM0,4.167,0,3.1V0H.621A.625.625,0,0,1,1.24.539l.006.085.006,3.543Z" transform="translate(10.833 4.167)" fill="#aaa"/>
</svg>
