<svg id="text-continuous_1" data-name="text-continuous 1" xmlns="http://www.w3.org/2000/svg" width="30" height="30" viewBox="0 0 30 30">
  <rect id="text-continuous_1-2" data-name="text-continuous 1" width="30" height="30" fill="none"/>
  <path id="Vector" d="M21.586,0a.938.938,0,0,1,0,1.875H.961A.937.937,0,0,1,.961,0Zm0,5a.938.938,0,0,1,0,1.875H7.211A.938.938,0,0,1,7.211,5ZM6.273,10.938A.938.938,0,0,1,7.211,10H21.586a.938.938,0,0,1,0,1.875H7.211a.938.938,0,0,1-.937-.937ZM21.586,15a.938.938,0,0,1,0,1.875H.961A.938.938,0,0,1,.961,15ZM.3,7.537A.938.938,0,1,1,1.623,6.212L3.5,8.087a.938.938,0,0,1,0,1.325L1.623,11.287A.937.937,0,0,1,.3,9.963L1.511,8.75Z" transform="translate(3.727 6.25)" fill="#aaa"/>
</svg>
